<svg width="401" height="587" viewBox="0 0 401 587" fill="none" xmlns="http://www.w3.org/2000/svg">
<g clip-path="url(#clip0_20_386)">
<path d="M200.504 401.827C311.24 401.827 401.008 311.875 401.008 200.913C401.008 89.952 311.24 0 200.504 0C89.7688 0 0 89.952 0 200.913C0 311.875 89.7688 401.827 200.504 401.827Z" fill="#1A1A29"/>
<path d="M187.363 117.373H50.1663C48.2939 117.373 46.7773 115.853 46.7773 113.977C46.7773 112.101 48.2939 110.581 50.1663 110.581H187.363C189.236 110.581 190.752 112.101 190.752 113.977C190.752 115.853 189.236 117.373 187.363 117.373Z" fill="#6DE05D"/>
<path d="M77.5329 139.625H50.1663C48.5311 139.625 47.2009 138.292 47.2009 136.653C47.2009 135.015 48.5311 133.682 50.1663 133.682H77.5329C79.1681 133.682 80.4983 135.015 80.4983 136.653C80.4983 138.292 79.1681 139.625 77.5329 139.625Z" fill="#C1272D"/>
<path d="M220.991 139.625H98.5873C96.9521 139.625 95.6219 138.292 95.6219 136.653C95.6219 135.015 96.9521 133.682 98.5873 133.682H220.991C222.626 133.682 223.956 135.015 223.956 136.653C223.956 138.292 222.626 139.625 220.991 139.625Z" fill="white"/>
<path d="M300.328 162.828H159.895C158.26 162.828 156.93 161.495 156.93 159.856C156.93 158.218 158.26 156.885 159.895 156.885H300.328C301.964 156.885 303.294 158.218 303.294 159.856C303.294 161.495 301.964 162.828 300.328 162.828Z" fill="#FFFF00"/>
<path d="M77.5329 184.452H50.1663C48.5311 184.452 47.2009 183.119 47.2009 181.48C47.2009 179.841 48.5311 178.509 50.1663 178.509H77.5329C79.1681 178.509 80.4983 179.841 80.4983 181.48C80.4983 183.119 79.1681 184.452 77.5329 184.452Z" fill="#29ABE2"/>
<path d="M297.999 229.796H270.632C268.997 229.796 267.667 228.463 267.667 226.825C267.667 225.186 268.997 223.853 270.632 223.853H297.999C299.634 223.853 300.964 225.186 300.964 226.825C300.964 228.463 299.634 229.796 297.999 229.796Z" fill="#935FA6"/>
<path d="M220.991 184.452H98.5873C96.9521 184.452 95.6219 183.119 95.6219 181.48C95.6219 179.841 96.9521 178.509 98.5873 178.509H220.991C222.626 178.509 223.956 179.841 223.956 181.48C223.956 183.119 222.626 184.452 220.991 184.452Z" fill="white"/>
<path d="M187.363 207.12H50.1663C48.5311 207.12 47.2009 205.787 47.2009 204.148C47.2009 202.51 48.5311 201.177 50.1663 201.177H187.363C188.998 201.177 190.329 202.51 190.329 204.148C190.329 205.787 188.998 207.12 187.363 207.12Z" fill="#666666"/>
<path d="M250.332 229.796H98.5873C96.9521 229.796 95.6219 228.463 95.6219 226.825C95.6219 225.186 96.9521 223.853 98.5873 223.853H250.34C251.975 223.853 253.306 225.186 253.306 226.825C253.306 228.463 251.975 229.796 250.34 229.796H250.332Z" fill="#3B4F59"/>
<path d="M80.1679 252.999H50.1748C48.5396 252.999 47.2094 251.666 47.2094 250.027C47.2094 248.389 48.5396 247.056 50.1748 247.056H80.1679C81.8031 247.056 83.1333 248.389 83.1333 250.027C83.1333 251.666 81.8031 252.999 80.1679 252.999Z" fill="#C1272D"/>
<path d="M187.363 252.999H98.5873C96.9521 252.999 95.6219 251.666 95.6219 250.027C95.6219 248.389 96.9521 247.056 98.5873 247.056H187.363C188.998 247.056 190.329 248.389 190.329 250.027C190.329 251.666 188.998 252.999 187.363 252.999Z" fill="#6DE05D"/>
<path d="M138.951 162.955H50.1663C48.5311 162.955 47.2009 161.622 47.2009 159.984C47.2009 158.345 48.5311 157.012 50.1663 157.012H138.942C140.578 157.012 141.908 158.345 141.908 159.984C141.908 161.622 140.578 162.955 138.942 162.955H138.951Z" fill="#3B4F59"/>
<path d="M306.344 117.373H217.568C215.696 117.373 214.179 115.853 214.179 113.977C214.179 112.101 215.696 110.581 217.568 110.581H306.344C308.216 110.581 309.733 112.101 309.733 113.977C309.733 115.853 308.216 117.373 306.344 117.373Z" fill="#3B4F59"/>
<path d="M269.615 274.623H50.1663C48.5311 274.623 47.2009 273.29 47.2009 271.651C47.2009 270.013 48.5311 268.68 50.1663 268.68H269.615C271.251 268.68 272.581 270.013 272.581 271.651C272.581 273.29 271.251 274.623 269.615 274.623Z" fill="white"/>
<path d="M269.014 184.452H241.647C240.012 184.452 238.682 183.119 238.682 181.48C238.682 179.841 240.012 178.509 241.647 178.509H269.014C270.649 178.509 271.979 179.841 271.979 181.48C271.979 183.119 270.649 184.452 269.014 184.452Z" fill="#999999"/>
<path d="M210.714 340.666H194.845V380.424H210.714V340.666Z" fill="#F7CAA9"/>
<path d="M202.783 340.954V385.076C200.064 378.183 189.778 371.119 189.778 371.119C189.778 371.119 180.373 364.539 167.961 354.436C155.549 344.325 156.608 333.254 156.608 333.254L155.82 304.932L177.442 330.427C177.442 330.427 185.33 340.156 202.783 340.954Z" fill="#F7CAA9"/>
<path d="M249.001 333.254C249.001 333.254 250.052 344.325 237.64 354.436C225.236 364.539 215.831 371.119 215.831 371.119C215.831 371.119 205.537 378.183 202.817 385.076V340.954C220.271 340.156 228.167 330.427 228.167 330.427L249.781 304.932L249.001 333.254Z" fill="#F7CAA9"/>
<path d="M94.4103 553.134V560.478C94.4103 563.025 96.4691 565.088 99.0109 565.088H142.043V553.134H94.4103Z" fill="#3E3145"/>
<path d="M143.738 566.786H99.0109C95.5371 566.786 92.7158 563.958 92.7158 560.478V551.436H143.738V566.786ZM96.1048 554.832V560.478C96.1048 562.082 97.4096 563.39 99.0109 563.39H140.349V554.832H96.1048Z" fill="black"/>
<path d="M201.207 385.696C198.708 379.363 188.914 372.579 188.812 372.511C188.702 372.435 179.204 365.77 166.885 355.744C154.464 345.624 154.811 334.544 154.905 333.203L153.99 300.143L178.73 329.315C178.823 329.434 186.457 338.492 202.86 339.248L202.707 342.644C184.703 341.812 176.467 331.913 176.129 331.488L157.65 309.703L158.302 333.305V333.407C158.26 333.814 157.548 343.756 169.029 353.103C181.246 363.054 190.651 369.65 190.744 369.718C191.167 370.007 201.479 377.147 204.359 384.448L201.207 385.696Z" fill="black"/>
<path d="M154.269 337.1C154.269 337.1 73.8218 365.499 64.8917 410.979C64.8917 410.979 61.8839 424.537 61.723 431.117C61.723 431.117 24.5028 475.562 38.347 520.762C52.1913 565.962 82.9384 559.102 82.9384 559.102L147.864 541.18H205.029V385.076C205.029 385.076 199.208 374.999 177.857 362.705C156.506 350.412 154.269 337.1 154.269 337.1Z" fill="#2D2A45"/>
<path opacity="0.36" d="M105.213 435.888C107.67 424.894 103.213 406.802 103.213 406.802L101.138 418.688C100.824 420.488 99.7904 420.827 98.7906 419.299C97.6214 417.508 94.9525 414.282 94.9525 414.282L95.7828 435.625L105.213 435.897V435.888Z" fill="#161515"/>
<path opacity="0.36" d="M86.5393 449.574C86.5393 449.574 79.1935 451.331 71.458 445.516C71.458 445.516 84.7685 458.87 87.6915 457.071L86.5308 449.574H86.5393Z" fill="#161515"/>
<path opacity="0.36" d="M133.24 370.525C133.24 370.525 146.5 392.454 175.086 391.011C175.086 391.011 188.38 390.136 205.19 405.299V385.076L133.24 370.525Z" fill="#161515"/>
<path opacity="0.36" d="M35.407 498.586C35.407 498.586 32.5856 466.18 61.7229 431.125C61.7229 431.125 60.469 391.826 97.1046 369.166C133.74 346.507 147.779 338.305 147.779 338.305V346.727C147.779 346.727 90.3773 370.075 76.9313 396.784C76.9313 396.784 69.4839 411.862 67.3233 435.608C67.3233 435.608 45.5064 457.427 35.3986 498.578L35.407 498.586Z" fill="#BC9395"/>
<path opacity="0.36" d="M51.1152 496.583C51.1152 496.583 60.8248 490.64 69.7296 486.7C71.6359 485.86 73.6863 485.435 75.7705 485.452C79.6001 485.478 86.2172 485.062 88.1236 482.116C90.8602 477.888 87.6999 476.445 87.6999 476.445C87.6999 476.445 83.3366 479.815 69.0263 480.893C69.0263 480.893 52.437 491.2 51.1152 496.574V496.583Z" fill="#BC9395"/>
<path opacity="0.36" d="M87.073 465.943C87.073 465.943 57.9612 469.228 53.6825 492.55C53.6825 492.55 70.848 477.336 73.5677 479.255C76.2874 481.173 89.2336 475.078 89.2336 475.078L87.0646 465.943" fill="#161515"/>
<path opacity="0.36" d="M39.8975 526.034C39.8975 526.034 56.758 552.497 86.5392 542.386L100.468 536.85L105.492 553.694C105.492 553.694 71.5597 565.92 59.3591 553.694C47.1585 541.469 46.8112 541.206 39.8975 526.026V526.034Z" fill="#161515"/>
<path d="M78.6427 560.826C73.4151 560.826 66.6879 559.815 59.9267 556.012C48.7005 549.678 40.7787 537.546 36.3898 519.938C29.8151 493.594 36.7203 470.536 43.6678 455.831C50.3442 441.712 58.139 432.586 60.0623 430.438C60.1555 428.477 60.2911 426.532 60.4775 424.631C62.4855 404.153 73.0423 385.246 89.4284 372.766C127.784 343.561 156.057 335.071 156.337 334.986L157.285 338.246C157.006 338.322 129.283 346.676 91.4787 375.466C75.8383 387.377 65.7644 405.418 63.8496 424.962C63.6462 426.999 63.5022 429.096 63.4175 431.202L63.392 431.839L62.9599 432.297C62.6041 432.671 27.5699 470.587 39.6772 519.123C43.8288 535.764 51.183 547.174 61.545 553.032C74.2963 560.248 87.361 556.36 87.4881 556.318L102.646 552.005H305.107V555.401H103.112L88.4455 559.569C88.1659 559.654 84.277 560.826 78.6427 560.826Z" fill="black"/>
<path d="M155.82 322.981C155.82 322.981 142.501 328.559 142.026 342.398C141.552 356.236 129.775 367.188 129.775 367.188C129.775 367.188 146.466 385.84 167.961 383.31C167.961 383.31 181.331 382.028 189.498 386.681C197.666 391.333 203.673 400.638 203.673 400.638V384.431C203.673 384.431 199.038 376.544 188.185 369.981C177.332 363.419 164.436 351.176 164.436 351.176C164.436 351.176 157.667 343.841 156.616 335.342C155.566 326.844 155.828 322.99 155.828 322.99L155.82 322.981Z" fill="#3E3145"/>
<path opacity="0.36" d="M155.82 322.981C155.82 322.981 148.94 323.38 150.804 338.747C151.558 344.987 155.311 350.497 159.505 354.835C164.962 360.481 171.392 365.405 178.772 368.071L191.32 373.751C191.32 373.751 169.122 357.408 160.573 345.895C152.032 334.375 155.82 322.99 155.82 322.99" fill="#BC9395"/>
<path opacity="0.36" d="M201.936 399.764C201.936 399.764 196.988 381.434 171.214 383.047C164.555 383.463 157.845 382.911 151.465 380.925C144.102 378.641 135.816 374.328 130.885 366.195C130.885 366.195 143.814 353.562 142.619 338.102C142.619 338.102 143.018 335.546 145.983 333.5C145.983 333.5 148.025 359.615 139.62 365.626C139.62 365.626 152.642 376.697 166.038 375.856C173.68 375.372 182 376.773 186.838 377.75C191.972 378.785 198.861 381.638 201.936 385.891C204.393 389.296 201.309 393.244 201.936 399.772V399.764Z" fill="#161515"/>
<path d="M201.936 402.336C201.284 402.336 200.682 401.963 200.394 401.351C200.352 401.267 196.234 392.479 188.66 388.158C181.051 383.82 168.249 384.991 168.122 385C146.034 387.598 129.216 369.107 128.513 368.317C127.894 367.63 127.945 366.568 128.623 365.94C128.733 365.838 139.883 355.285 140.332 342.338C140.84 327.583 154.583 321.665 155.167 321.419C155.71 321.19 156.328 321.266 156.811 321.606C157.285 321.945 157.557 322.514 157.514 323.1C157.514 323.1 157.277 326.946 158.294 335.13C159.226 342.669 165.14 349.419 165.648 349.988C166.495 350.786 178.814 362.332 189.066 368.529C200.225 375.279 203.343 381.595 203.478 381.867C203.588 382.096 203.648 382.351 203.648 382.606V400.647C203.648 401.445 203.097 402.132 202.317 402.302C202.199 402.328 202.072 402.345 201.953 402.345L201.936 402.336ZM172.24 381.443C177.052 381.443 184.745 382.011 190.337 385.204C194.743 387.717 198.047 391.444 200.242 394.526V383.039C199.504 381.791 196.158 376.79 187.304 371.433C176.417 364.853 163.792 352.917 163.267 352.407C163.242 352.382 163.216 352.356 163.191 352.331C162.903 352.017 156.04 344.495 154.93 335.546C154.379 331.089 154.185 327.88 154.125 325.8C150.516 328.007 144.043 333.228 143.729 342.457C143.323 354.258 135.299 363.869 132.164 367.197C136.172 371.119 150.474 383.658 167.775 381.629C167.986 381.612 169.715 381.451 172.248 381.451L172.24 381.443Z" fill="black"/>
<path d="M86.5392 457.767C78.3886 455.908 70.5175 449.116 67.3234 441.39C70.9581 443.742 74.0252 446.433 77.2872 449.158C80.4983 451.934 83.5908 454.6 86.5392 457.767Z" fill="black"/>
<path d="M100.468 435.617C98.5872 431.677 97.2994 427.721 96.1302 423.586C95.0033 419.435 93.9866 415.368 93.7494 410.996C98.7736 417.584 101.654 427.373 100.477 435.625L100.468 435.617Z" fill="black"/>
<path d="M105.111 435.617C103.273 425.166 104.044 414.774 102.23 404.331C108.322 411.921 108.034 426.719 105.111 435.617Z" fill="black"/>
<path d="M87.7 475.579C84.8108 479.628 79.329 480.953 74.559 480.749C72.0765 480.783 69.5686 481.437 67.4589 482.727C61.2316 486.556 55.9023 491.684 50.3527 496.583C54.123 489.332 63.0277 478.813 71.602 477.811C73.5168 477.531 75.4909 477.905 77.3973 478.024C80.871 478.21 84.5058 477.642 87.7 475.579Z" fill="black"/>
<path d="M151.982 325.189C150.668 338.883 153.837 353.299 164.004 363.003C167.275 366.178 171.045 368.903 175.078 371.433C170.477 370.202 166.097 368.012 162.25 364.989C150.474 355.998 146.602 338.738 151.973 325.189H151.982Z" fill="black"/>
<path d="M311.182 553.134V560.478C311.182 563.025 309.123 565.088 306.581 565.088H263.549V553.134H311.182Z" fill="#3E3145"/>
<path d="M306.581 566.786H261.854V551.436H312.876V560.478C312.876 563.958 310.055 566.786 306.581 566.786ZM265.243 563.39H306.581C308.183 563.39 309.487 562.082 309.487 560.478V554.832H265.243V563.39Z" fill="black"/>
<path opacity="0.36" d="M177.671 330.69L156.608 306.579V319.534C182.237 351.422 202.783 348.315 202.783 348.315V342.16C183.932 339.757 177.671 330.69 177.671 330.69Z" fill="#A16F70"/>
<path opacity="0.36" d="M227.93 330.69C227.93 330.69 221.669 339.749 202.817 342.16V348.315C202.817 348.315 223.363 351.422 248.993 319.534V306.579L227.93 330.69Z" fill="#A16F70"/>
<path d="M204.393 385.696L201.241 384.448C204.122 377.147 214.433 370.015 214.874 369.71C214.959 369.65 224.363 363.054 236.581 353.112C248.061 343.756 247.349 333.823 247.315 333.407V333.313V333.212L247.968 309.72L229.464 331.539C229.142 331.93 220.906 341.837 202.902 342.661L202.75 339.265C219.254 338.509 226.786 329.45 226.854 329.366L251.62 300.169L250.704 333.22C250.798 334.561 251.145 345.641 238.724 355.761C226.414 365.796 216.907 372.452 216.814 372.52C216.704 372.596 206.91 379.38 204.41 385.713L204.393 385.696Z" fill="black"/>
<path d="M251.331 337.1C251.331 337.1 331.779 365.499 340.709 410.979C340.709 410.979 343.717 424.537 343.878 431.117C343.878 431.117 381.098 475.562 367.254 520.762C353.409 565.962 322.662 559.102 322.662 559.102L257.737 541.18H200.572V385.076C200.572 385.076 206.393 374.999 227.744 362.705C249.095 350.421 251.331 337.1 251.331 337.1Z" fill="#2D2A45"/>
<path opacity="0.36" d="M300.388 435.888C297.931 424.894 302.387 406.802 302.387 406.802L304.463 418.688C304.777 420.488 305.81 420.827 306.81 419.299C307.979 417.508 310.648 414.282 310.648 414.282L309.818 435.625L300.388 435.897V435.888Z" fill="#161515"/>
<path opacity="0.36" d="M319.053 449.574C319.053 449.574 326.399 451.331 334.134 445.516C334.134 445.516 320.824 458.87 317.901 457.071L319.061 449.574H319.053Z" fill="#161515"/>
<path opacity="0.36" d="M272.36 370.525C272.36 370.525 259.101 392.454 230.514 391.011C230.514 391.011 218.746 387.25 201.936 402.413L200.42 385.076L272.369 370.525" fill="#161515"/>
<path opacity="0.36" d="M370.194 498.586C370.194 498.586 373.015 466.18 343.878 431.125C343.878 431.125 345.132 391.826 308.496 369.166C271.852 346.507 257.821 338.305 257.821 338.305V346.727C257.821 346.727 315.223 370.075 328.669 396.784C328.669 396.784 336.117 411.862 338.277 435.608C338.277 435.608 360.094 457.427 370.202 498.578L370.194 498.586Z" fill="#BC9395"/>
<path opacity="0.36" d="M354.485 496.583C354.485 496.583 344.776 490.64 335.871 486.7C333.965 485.86 331.914 485.435 329.83 485.452C326.001 485.478 319.383 485.062 317.477 482.116C314.74 477.888 317.901 476.445 317.901 476.445C317.901 476.445 322.264 479.815 336.574 480.893C336.574 480.893 353.164 491.2 354.485 496.574V496.583Z" fill="#BC9395"/>
<path opacity="0.36" d="M318.528 465.943C318.528 465.943 347.64 469.228 351.918 492.55C351.918 492.55 334.753 477.336 332.033 479.255C329.313 481.173 316.367 475.078 316.367 475.078L318.536 465.943" fill="#161515"/>
<path opacity="0.36" d="M365.703 526.034C365.703 526.034 348.843 552.497 319.061 542.386L305.132 536.85L300.108 553.694C300.108 553.694 334.041 565.92 346.242 553.694C358.451 541.469 358.789 541.206 365.703 526.026V526.034Z" fill="#161515"/>
<path d="M326.966 560.826C321.324 560.826 317.426 559.654 317.121 559.561L302.497 555.401H100.502V552.005H302.963L318.079 556.301C318.248 556.351 331.304 560.24 344.064 553.023C354.426 547.165 361.78 535.755 365.932 519.115C378.039 470.578 343.005 432.671 342.649 432.289L342.217 431.83L342.192 431.193C342.107 429.096 341.963 426.999 341.76 424.953C339.845 405.41 329.771 387.369 314.13 375.457C276.326 346.668 248.595 338.314 248.324 338.238L249.273 334.977C249.552 335.062 277.825 343.552 316.181 372.757C332.567 385.238 343.124 404.145 345.132 424.622C345.318 426.524 345.454 428.477 345.547 430.429C347.479 432.577 355.273 441.704 361.941 455.823C368.889 470.527 375.794 493.586 369.219 519.93C364.83 537.538 356.909 549.67 345.682 556.003C338.93 559.815 332.202 560.817 326.966 560.817V560.826Z" fill="black"/>
<path d="M249.781 322.981C249.781 322.981 263.1 328.559 263.574 342.398C264.057 356.236 275.826 367.188 275.826 367.188C275.826 367.188 259.135 385.84 237.64 383.31C237.64 383.31 224.27 382.028 216.102 386.681C207.935 391.333 201.928 400.638 201.928 400.638V384.431C201.928 384.431 206.562 376.544 217.416 369.981C228.269 363.419 241.164 351.176 241.164 351.176C241.164 351.176 247.934 343.841 248.985 335.342C250.035 326.836 249.772 322.99 249.772 322.99L249.781 322.981Z" fill="#3E3145"/>
<path opacity="0.36" d="M249.781 322.981C249.781 322.981 256.661 323.38 254.797 338.747C254.043 344.987 250.289 350.497 246.095 354.835C240.639 360.481 234.208 365.405 226.829 368.071L214.281 373.751C214.281 373.751 236.479 357.408 245.028 345.895C253.568 334.375 249.781 322.99 249.781 322.99" fill="#BC9395"/>
<path opacity="0.36" d="M200.572 400.638C200.572 400.638 208.613 381.434 234.386 383.047C241.046 383.463 247.756 382.911 254.136 380.925C261.499 378.641 269.785 374.328 274.716 366.195C274.716 366.195 261.787 353.562 262.981 338.102C262.981 338.102 262.583 335.546 259.618 333.5C259.618 333.5 257.576 359.615 265.981 365.626C265.981 365.626 252.958 376.697 239.563 375.856C231.921 375.372 223.601 376.773 218.763 377.75C213.628 378.785 205.418 382.224 202.343 386.469C199.886 389.873 201.199 394.11 200.572 400.638Z" fill="#161515"/>
<path d="M201.936 402.336C201.775 402.336 201.614 402.311 201.453 402.268C200.733 402.056 200.242 401.394 200.242 400.638V384.431C200.242 384.125 200.326 383.828 200.479 383.574C200.674 383.234 205.461 375.236 216.551 368.529C226.803 362.332 239.114 350.794 239.97 349.988C240.478 349.419 246.383 342.669 247.324 335.13C248.341 326.946 248.103 323.142 248.103 323.1C248.061 322.514 248.332 321.945 248.807 321.606C249.281 321.266 249.908 321.19 250.442 321.419C251.026 321.665 264.769 327.583 265.277 342.338C265.726 355.319 276.876 365.838 276.986 365.94C277.664 366.568 277.715 367.63 277.097 368.317C276.393 369.107 259.567 387.598 237.453 384.991C237.36 384.991 224.549 383.82 216.95 388.15C209.256 392.539 203.419 401.462 203.36 401.555C203.038 402.048 202.504 402.328 201.936 402.328V402.336ZM203.631 384.932V395.527C206.257 392.327 210.366 388.005 215.272 385.204C223.804 380.339 237.241 381.561 237.809 381.621C255.127 383.667 269.446 371.119 273.453 367.197C270.319 363.877 262.303 354.258 261.888 342.457C261.566 333.228 255.093 328.007 251.492 325.8C251.433 327.871 251.238 331.081 250.687 335.546C249.578 344.486 242.715 352.008 242.427 352.331C242.401 352.356 242.376 352.382 242.35 352.407C241.817 352.908 229.192 364.845 218.314 371.433C209.307 376.884 204.698 383.336 203.648 384.923L203.631 384.932Z" fill="black"/>
<path d="M319.053 457.767C322.001 454.609 325.094 451.943 328.305 449.158C331.567 446.433 334.634 443.742 338.269 441.39C335.075 449.116 327.212 455.908 319.053 457.767Z" fill="black"/>
<path d="M305.124 435.617C303.946 427.364 306.827 417.584 311.851 410.987C311.614 415.36 310.597 419.435 309.471 423.578C308.293 427.713 307.013 431.669 305.133 435.608L305.124 435.617Z" fill="black"/>
<path d="M300.481 435.617C297.558 426.728 297.27 411.921 303.362 404.331C301.549 414.774 302.32 425.166 300.481 435.617Z" fill="black"/>
<path d="M317.901 475.579C321.095 477.642 324.73 478.21 328.203 478.024C330.11 477.905 332.084 477.523 333.999 477.811C342.573 478.822 351.461 489.307 355.248 496.583C349.707 491.684 344.369 486.556 338.142 482.727C336.032 481.437 333.524 480.783 331.042 480.749C326.272 480.953 320.79 479.637 317.901 475.579Z" fill="black"/>
<path d="M253.611 325.189C258.991 338.738 255.11 355.998 243.333 364.989C239.495 368.003 235.106 370.202 230.506 371.433C234.539 368.903 238.309 366.178 241.579 363.003C251.747 353.299 254.915 338.891 253.602 325.189H253.611Z" fill="black"/>
<path d="M133.588 215.329L136.917 236.766L138.697 271.057C138.697 271.057 141.128 285.897 154.066 302.673C167.004 319.449 178.01 331.913 178.01 331.913C178.01 331.913 188.956 342.143 205.529 342.389L203.131 140.644C203.131 140.644 134.977 140.347 133.588 215.329Z" fill="#F7CAA9"/>
<path d="M166.86 231.426C170.393 229.38 175.07 229.431 178.628 231.426C174.612 231.774 170.926 231.698 166.86 231.426Z" fill="black"/>
<path d="M148.94 233.591C153.871 226.833 161.522 221.323 170.342 221.917C175.764 222.045 181.144 223.42 185.711 226.434C186.27 226.706 191.566 230.645 189.99 230.764C184.228 229.796 179.128 228.879 173.714 227.249C170.435 226.094 167.012 225.39 163.538 226.205C158.15 227.241 153.43 230.221 149.33 233.922C149.135 234.143 148.754 233.846 148.94 233.6V233.591Z" fill="black"/>
<path d="M180.255 246.122C183.398 244.433 186.058 242.336 186.058 242.336C186.058 242.336 182.178 236.002 172.189 235.264C162.2 234.525 156.311 242.336 156.311 242.336C156.311 242.336 159.243 244.169 162.657 246.122C162.657 246.122 170.401 251.403 180.246 246.122H180.255Z" fill="white"/>
<path d="M171.85 248.041C175.256 248.041 178.018 245.274 178.018 241.86C178.018 238.447 175.256 235.68 171.85 235.68C168.443 235.68 165.682 238.447 165.682 241.86C165.682 245.274 168.443 248.041 171.85 248.041Z" fill="#998868"/>
<path d="M171.85 248.881C167.986 248.881 164.835 245.732 164.835 241.852C164.835 237.972 167.978 234.822 171.85 234.822C175.722 234.822 178.865 237.972 178.865 241.852C178.865 245.732 175.722 248.881 171.85 248.881ZM171.85 236.529C168.918 236.529 166.529 238.923 166.529 241.86C166.529 244.798 168.918 247.192 171.85 247.192C174.781 247.192 177.171 244.806 177.171 241.86C177.171 238.914 174.79 236.529 171.85 236.529Z" fill="black"/>
<path d="M171.85 243.957C173.006 243.957 173.943 243.018 173.943 241.86C173.943 240.702 173.006 239.763 171.85 239.763C170.694 239.763 169.757 240.702 169.757 241.86C169.757 243.018 170.694 243.957 171.85 243.957Z" fill="black"/>
<path d="M171.85 244.56C170.367 244.56 169.156 243.346 169.156 241.86C169.156 240.374 170.367 239.16 171.85 239.16C173.333 239.16 174.544 240.374 174.544 241.86C174.544 243.346 173.333 244.56 171.85 244.56ZM171.85 240.366C171.028 240.366 170.35 241.037 170.35 241.869C170.35 242.701 171.02 243.371 171.85 243.371C172.68 243.371 173.35 242.701 173.35 241.869C173.35 241.037 172.68 240.366 171.85 240.366Z" fill="black"/>
<path d="M163.742 246.513C167.766 248.202 172.13 248.499 176.298 247.345C177.289 247.124 178.272 246.759 179.272 246.513C175.23 250.579 167.631 251.004 163.742 246.513Z" fill="black"/>
<path d="M173.943 245.239C174.869 245.239 175.62 244.487 175.62 243.558C175.62 242.63 174.869 241.877 173.943 241.877C173.016 241.877 172.265 242.63 172.265 243.558C172.265 244.487 173.016 245.239 173.943 245.239Z" fill="white"/>
<path d="M169.757 241.037C170.239 241.037 170.63 240.645 170.63 240.162C170.63 239.679 170.239 239.288 169.757 239.288C169.275 239.288 168.885 239.679 168.885 240.162C168.885 240.645 169.275 241.037 169.757 241.037Z" fill="white"/>
<path d="M137.129 240.264C137.129 240.264 127.725 234.567 123.878 238.422C118.752 243.558 123.878 261.769 123.878 261.769C123.878 261.769 126.818 273.502 136.85 274.928H138.544" fill="#F7CAA9"/>
<path d="M138.536 276.618L136.604 276.601C125.573 275.039 122.361 262.703 122.226 262.177C121.684 260.258 117.007 242.896 122.675 237.216C127.326 232.555 136.926 238.15 138.002 238.804L136.248 241.707C134.096 240.408 127.437 237.242 125.064 239.61C121.845 242.837 123.624 254.621 125.496 261.294C125.539 261.446 128.292 271.897 136.96 273.213H138.536V276.609V276.618Z" fill="black"/>
<path d="M128.513 246.122C130.936 246.258 132.893 248.533 132.944 251.029C133.003 253.551 131.69 255.605 129.995 257.269C130.004 257.269 130.156 257.083 130.131 257.1C129.919 257.32 129.766 257.6 129.639 257.898C129.14 259.035 129.343 260.513 129.597 261.778C129.682 262.092 129.758 262.431 129.826 262.805C128.385 262.312 127.208 261.302 126.521 259.884C125.878 258.526 125.827 256.76 126.479 255.342C126.606 255.062 126.708 254.858 126.911 254.587C129.156 251.844 130.521 249.603 128.513 246.122Z" fill="#75695E"/>
<path d="M271.581 215.329L268.251 236.766L266.472 271.057C266.472 271.057 264.04 285.897 251.103 302.673C238.165 319.449 227.159 331.913 227.159 331.913C227.159 331.913 216.212 342.143 199.64 342.389L202.038 140.644C202.038 140.644 270.191 140.347 271.581 215.329Z" fill="#F7CAA9"/>
<path opacity="0.93" d="M261.177 172.167C241.147 143.029 209.367 140.805 203.131 140.652C203.131 140.652 202.936 140.644 202.589 140.644C202.233 140.644 202.046 140.644 202.046 140.644C195.81 140.805 164.021 143.029 144 172.167C144 172.167 126.928 189.588 137.824 244.526C137.824 244.526 141.815 235.612 143.738 211.704C145.661 187.797 150.702 183.212 156.667 180.266C162.632 177.32 174.883 178.627 185.728 182.558C194.785 185.835 200.843 185.92 202.597 185.861C204.351 185.92 210.409 185.835 219.466 182.558C230.311 178.627 242.562 177.32 248.527 180.266C254.492 183.212 259.533 187.797 261.456 211.704C263.379 235.612 267.37 244.526 267.37 244.526C278.257 189.588 261.194 172.167 261.194 172.167H261.177Z" fill="#75695E"/>
<path d="M238.309 231.426C234.242 231.698 230.557 231.774 226.541 231.426C230.099 229.431 234.776 229.38 238.309 231.426Z" fill="black"/>
<path d="M255.839 233.914C251.747 230.212 247.019 227.241 241.63 226.196C238.157 225.381 234.734 226.086 231.455 227.241C226.049 228.871 220.94 229.788 215.179 230.755C213.561 230.645 219.034 226.612 219.449 226.426C224.016 223.42 229.396 222.036 234.818 221.909C239.487 221.552 244.231 223.115 247.883 225.568C249.544 226.646 251.052 227.886 252.441 229.227C252.882 229.601 257.618 234.482 255.822 233.905L255.839 233.914Z" fill="black"/>
<path d="M224.914 246.122C221.771 244.433 219.11 242.336 219.11 242.336C219.11 242.336 222.991 236.002 232.98 235.264C242.961 234.525 248.857 242.336 248.857 242.336C248.857 242.336 245.926 244.169 242.511 246.122C242.511 246.122 234.767 251.403 224.922 246.122H224.914Z" fill="white"/>
<path d="M233.319 248.041C236.725 248.041 239.487 245.274 239.487 241.86C239.487 238.447 236.725 235.68 233.319 235.68C229.912 235.68 227.151 238.447 227.151 241.86C227.151 245.274 229.912 248.041 233.319 248.041Z" fill="#998868"/>
<path d="M233.319 248.881C229.455 248.881 226.303 245.732 226.303 241.852C226.303 237.972 229.447 234.822 233.319 234.822C237.191 234.822 240.334 237.972 240.334 241.852C240.334 245.732 237.191 248.881 233.319 248.881ZM233.319 236.529C230.387 236.529 227.998 238.923 227.998 241.86C227.998 244.798 230.387 247.192 233.319 247.192C236.25 247.192 238.639 244.806 238.639 241.86C238.639 238.914 236.259 236.529 233.319 236.529Z" fill="black"/>
<path d="M233.319 243.957C234.474 243.957 235.411 243.018 235.411 241.86C235.411 240.702 234.474 239.763 233.319 239.763C232.163 239.763 231.226 240.702 231.226 241.86C231.226 243.018 232.163 243.957 233.319 243.957Z" fill="black"/>
<path d="M233.319 244.56C231.836 244.56 230.624 243.346 230.624 241.86C230.624 240.374 231.836 239.16 233.319 239.16C234.801 239.16 236.013 240.374 236.013 241.86C236.013 243.346 234.801 244.56 233.319 244.56ZM233.319 240.366C232.497 240.366 231.819 241.037 231.819 241.869C231.819 242.701 232.488 243.371 233.319 243.371C234.149 243.371 234.818 242.701 234.818 241.869C234.818 241.037 234.149 240.366 233.319 240.366Z" fill="black"/>
<path d="M241.427 246.513C237.538 251.004 229.938 250.579 225.897 246.513C226.896 246.759 227.888 247.124 228.871 247.345C233.039 248.499 237.402 248.202 241.427 246.513Z" fill="black"/>
<path d="M202.563 279.623C202.351 279.623 202.131 279.623 201.911 279.598L202.097 277.059C204.088 277.204 205.359 276.38 206.333 275.54C207.74 274.334 209.663 273.68 209.748 273.655L209.85 273.629C211.747 273.162 214.103 272.263 214.552 270.624C215.043 268.824 213.188 266.481 212.425 265.734L214.204 263.917C214.357 264.07 217.983 267.669 217 271.295C216.382 273.553 214.204 275.166 210.51 276.091C210.265 276.176 208.918 276.686 207.986 277.484C206.893 278.426 205.164 279.632 202.563 279.632V279.623Z" fill="black"/>
<path d="M223.016 293.292C223.016 293.292 211.646 296.824 201.157 296.179V308.981C201.157 308.981 219.203 306.282 223.016 293.292Z" fill="white"/>
<path d="M202.402 309.287C201.962 309.287 201.529 309.27 201.08 309.245L201.241 306.706C211.62 307.36 218.966 299.15 221.389 295.287C213.832 297.732 201.69 297.469 201.131 297.452L201.191 294.905C201.335 294.905 215.907 295.219 222.474 292.137C223.499 291.653 224.151 292.188 224.329 292.367C225.21 293.233 224.592 294.616 224.363 295.134C222.626 299.04 214.306 309.287 202.394 309.287H202.402Z" fill="black"/>
<path d="M182.178 293.292C182.178 293.292 193.548 296.824 204.037 296.179V308.981C204.037 308.981 185.991 306.282 182.178 293.292Z" fill="white"/>
<path d="M202.792 309.287C190.879 309.287 182.568 299.04 180.822 295.134C180.594 294.616 179.975 293.233 180.856 292.367C181.034 292.188 181.687 291.662 182.712 292.137C189.287 295.219 203.851 294.914 203.995 294.905L204.054 297.452C203.487 297.469 191.354 297.724 183.796 295.287C186.219 299.142 193.574 307.36 203.944 306.706L204.105 309.245C203.656 309.27 203.216 309.287 202.783 309.287H202.792Z" fill="black"/>
<path d="M231.226 245.239C232.152 245.239 232.904 244.487 232.904 243.558C232.904 242.63 232.152 241.877 231.226 241.877C230.299 241.877 229.548 242.63 229.548 243.558C229.548 244.487 230.299 245.239 231.226 245.239Z" fill="white"/>
<path d="M235.411 241.037C235.893 241.037 236.284 240.645 236.284 240.162C236.284 239.679 235.893 239.288 235.411 239.288C234.929 239.288 234.539 239.679 234.539 240.162C234.539 240.645 234.929 241.037 235.411 241.037Z" fill="white"/>
<path d="M268.039 240.264C268.039 240.264 277.444 234.567 281.291 238.422C286.417 243.558 281.291 261.769 281.291 261.769C281.291 261.769 278.351 273.502 268.319 274.928H266.625" fill="#F7CAA9"/>
<path d="M268.446 276.618H266.633V273.222H268.209C276.876 271.906 279.63 261.455 279.655 261.345C281.545 254.629 283.316 242.845 280.096 239.619C277.724 237.25 271.064 240.417 268.921 241.716L267.167 238.812C268.243 238.159 277.842 232.555 282.494 237.225C288.153 242.896 283.477 260.266 282.926 262.227C282.807 262.703 279.588 275.039 268.565 276.601L268.446 276.618Z" fill="black"/>
<path d="M276.656 246.122C274.648 249.611 276.012 251.844 278.257 254.587C278.452 254.858 278.562 255.062 278.689 255.342C279.342 256.76 279.291 258.526 278.647 259.884C277.961 261.311 276.783 262.312 275.343 262.805C275.411 262.431 275.487 262.092 275.572 261.778C275.817 260.513 276.029 259.035 275.529 257.898C275.402 257.6 275.25 257.32 275.038 257.1C275.004 257.083 275.165 257.261 275.173 257.269C273.479 255.605 272.174 253.551 272.225 251.029C272.284 248.533 274.233 246.258 276.656 246.122Z" fill="#75695E"/>
<path d="M202.605 279.623C200.004 279.623 198.276 278.418 197.183 277.475C196.259 276.677 194.912 276.176 194.658 276.083C190.973 275.166 188.787 273.553 188.168 271.286C187.185 267.67 190.812 264.061 190.964 263.908L192.743 265.734C191.981 266.481 190.125 268.816 190.617 270.624C191.066 272.263 193.421 273.162 195.319 273.629L195.421 273.655C195.505 273.68 197.429 274.334 198.835 275.54C199.809 276.372 201.063 277.204 203.071 277.059L203.258 279.598C203.038 279.615 202.817 279.623 202.605 279.623Z" fill="black"/>
<path opacity="0.42" d="M266.243 274.13C266.243 274.13 256.796 296.416 247.426 294.489C240.393 293.046 232.463 284.182 228.964 281.457C228.964 281.457 223.499 277.144 215.28 280.931C213.747 281.635 211.798 282.332 210.18 282.799C207.884 283.452 204.935 283.809 202.58 284.021C200.225 283.809 197.276 283.461 194.98 282.799C193.353 282.332 191.413 281.644 189.88 280.931C181.67 277.144 176.196 281.457 176.196 281.457C172.697 284.182 164.767 293.046 157.735 294.489C148.364 296.416 138.917 274.13 138.917 274.13C138.917 274.13 138.222 278.919 140.518 284.463C142.484 289.217 150.482 299.889 150.482 299.889L178.899 333.008C183.584 339.248 193.353 341.939 199.665 343.068L199.632 343.832C199.632 343.832 200.767 343.764 202.58 343.527C204.393 343.764 205.528 343.832 205.528 343.832L205.495 343.068C211.807 341.939 221.576 339.248 226.261 333.008L254.678 299.889C254.678 299.889 262.668 289.217 264.642 284.463C266.938 278.919 266.243 274.13 266.243 274.13ZM219.008 322.726C219.008 322.726 213.027 328.27 209.4 327.455C203.639 326.173 205.876 312.292 205.876 312.292L202.58 312.776L199.284 312.292C199.284 312.292 201.529 326.173 195.76 327.455C192.133 328.262 186.152 322.726 186.152 322.726C175.103 312.615 175.341 296.255 175.341 296.255C175.341 290.72 177.586 287.892 179.746 287.409C181.077 287.111 182.466 287.29 183.72 287.816C188.77 289.947 196.556 290.796 200.936 291.127V291.314C200.936 291.314 201.546 291.297 202.58 291.237C203.614 291.297 204.224 291.314 204.224 291.314V291.127C208.596 290.804 216.382 289.947 221.432 287.816C222.686 287.29 224.084 287.111 225.405 287.409C227.566 287.901 229.811 290.72 229.811 296.255C229.811 296.255 230.048 312.624 219 322.726H219.008Z" fill="#7F7365"/>
<path d="M202.207 344.113C197.598 344.113 193.184 343.264 189.058 341.583C183.923 339.494 180.45 336.607 177.738 334.069C169.41 326.267 161.632 316.537 149.042 298.157C148.601 297.511 138.18 282.196 137.002 271.235C136.79 269.24 136.697 267.254 136.697 267.169C136.646 266.014 136.638 265.123 136.638 264.35C136.629 260.861 136.697 257.991 136.697 257.957C136.765 254.986 136.578 252.549 136.265 248.516C135.519 239.05 133.672 228.022 132.571 221.434C132.427 220.593 132.02 218.131 131.851 214.871C131.851 214.82 131.791 213.776 131.783 212.706C131.368 183.433 147.983 163.541 149.186 162.166C166.707 142.401 190.354 139.328 199.708 138.92C201.631 138.835 203.58 138.835 205.495 138.92C205.681 138.92 222.253 139.2 238.792 148.386C254.119 156.893 272.572 174.951 273.419 212.646C273.419 212.757 273.487 215.626 272.632 221.4C272.225 224.15 271.716 226.926 271.234 229.618C270.115 235.773 268.963 242.132 268.937 248.389L268.497 258.016C268.582 261.54 268.582 264.189 268.497 267.135C268.471 267.856 268.404 268.552 268.344 269.232C268.277 269.877 268.217 270.488 268.2 271.091C267.963 278.774 265.125 283.69 256.195 298.08C248.264 310.849 234.395 326.887 227.515 333.993C224.185 337.439 220.339 339.986 216.085 341.583C212.01 343.111 207.681 343.943 203.19 344.062V344.079C202.868 344.079 202.546 344.087 202.224 344.087L202.207 344.113ZM202.588 142.299C201.665 142.299 200.758 142.316 199.843 142.359C190.93 142.749 168.393 145.678 151.736 164.449C151.566 164.636 134.791 183.951 135.197 212.663C135.214 213.665 135.265 214.65 135.265 214.693C135.426 217.757 135.816 220.075 135.943 220.839C137.061 227.512 138.925 238.626 139.679 248.245C140.001 252.388 140.205 254.892 140.128 258.042C140.128 258.076 140.061 260.903 140.069 264.333C140.069 265.072 140.078 265.921 140.128 267.016C140.128 267.033 140.213 268.977 140.417 270.862C141.509 280.956 151.77 296.06 151.88 296.204C164.309 314.355 171.96 323.932 180.094 331.547C182.712 333.993 185.762 336.514 190.371 338.39C194.031 339.885 197.962 340.649 202.063 340.666C206.545 340.657 210.858 339.885 214.891 338.373C218.661 336.956 222.084 334.68 225.058 331.607C231.836 324.603 245.502 308.812 253.289 296.272C262.422 281.559 264.583 277.458 264.786 270.989C264.811 270.276 264.879 269.571 264.938 268.901C265.006 268.247 265.065 267.636 265.082 267.033C265.167 264.129 265.167 261.523 265.082 258.042V257.983V257.923L265.523 248.304C265.548 241.818 266.726 235.306 267.87 229.007C268.353 226.349 268.853 223.598 269.251 220.899C270.056 215.465 270.005 212.757 270.005 212.731C269.353 183.832 258.338 163.218 237.267 151.46C221.457 142.639 205.571 142.359 205.41 142.35C204.469 142.308 203.537 142.291 202.605 142.291L202.588 142.299Z" fill="black"/>
<path d="M157.735 300.61C154.769 298.471 154.701 293.725 156.65 290.881C157.091 294.175 156.93 297.35 157.735 300.61Z" fill="black"/>
<path d="M247.434 300.61C248.231 297.35 248.07 294.175 248.519 290.881C250.476 293.725 250.399 298.471 247.434 300.61Z" fill="black"/>
<path opacity="0.42" d="M158.006 216.577C158.006 216.577 155.362 213.343 156.921 206.848Z" fill="#7F7365"/>
<path opacity="0.42" d="M247.705 216.577C247.705 216.577 250.349 213.343 248.79 206.848Z" fill="#7F7365"/>
<path d="M248.51 241.86C240.131 236.257 232.056 235.926 223.067 240.111C221.881 240.68 220.72 241.325 219.449 241.86C220.373 240.875 221.372 239.933 222.414 239.042C223.448 238.371 224.787 237.31 225.914 236.843C227.456 236.019 229.15 235.476 230.853 235.06C237.377 233.693 244.723 236.333 248.502 241.86H248.51Z" fill="black"/>
<path d="M156.658 241.86C160.437 236.333 167.783 233.693 174.307 235.06C176.01 235.476 177.704 236.019 179.246 236.843C180.373 237.31 181.72 238.379 182.746 239.042C183.796 239.933 184.788 240.875 185.711 241.86C184.44 241.325 183.279 240.68 182.093 240.111C173.104 235.926 165.021 236.257 156.65 241.86H156.658Z" fill="black"/>
<path opacity="0.61" d="M311.182 519.174L100.502 519.735L0.0678101 244.798H400.932L311.182 519.174Z" fill="url(#paint0_linear_20_386)"/>
<path d="M308.827 435.617H97.8332C90.9365 435.617 85.4801 441.458 85.9292 448.351L91.8431 539.185C92.3768 547.352 99.138 553.694 107.306 553.694H299.371C307.539 553.694 314.3 547.344 314.834 539.185L320.747 448.351C321.197 441.458 315.74 435.617 308.843 435.617H308.827Z" fill="#FDFFFC"/>
<path d="M314.995 453.225L313.529 475.392L309.369 538.259C308.86 545.909 302.43 551.852 294.66 551.852H111.915C104.137 551.852 97.7062 545.909 97.2063 538.259L93.1902 477.718L91.572 453.225C91.1484 446.772 96.3421 441.305 102.908 441.305H303.667C310.216 441.305 315.418 446.772 314.995 453.225Z" fill="#AC9FB0"/>
<path d="M314.995 453.479L313.529 476.113C295.897 510.489 252.933 534.762 202.724 534.762C152.515 534.762 111.559 511.601 93.1987 478.491L91.5804 453.479C91.1568 446.891 96.3505 441.305 102.917 441.305H303.675C310.225 441.305 315.427 446.891 315.003 453.479H314.995Z" fill="#DAD9DE"/>
<path d="M202.783 505.157C210.49 505.157 216.738 498.897 216.738 491.175C216.738 483.452 210.49 477.192 202.783 477.192C195.077 477.192 188.829 483.452 188.829 491.175C188.829 498.897 195.077 505.157 202.783 505.157Z" fill="white"/>
<path d="M300.532 553.694H106.95C103.37 553.694 100.468 556.602 100.468 560.189V560.197C100.468 563.784 103.37 566.692 106.95 566.692H300.532C304.112 566.692 307.013 563.784 307.013 560.197V560.189C307.013 556.602 304.112 553.694 300.532 553.694Z" fill="#C4BDC4"/>
<path d="M298.693 560.393H108.797C106.924 560.393 105.408 558.873 105.408 556.997C105.408 555.12 106.924 553.601 108.797 553.601H298.693C300.566 553.601 302.082 555.12 302.082 556.997C302.082 558.873 300.566 560.393 298.693 560.393Z" fill="white"/>
<path d="M299.363 555.392H107.297C98.2653 555.392 90.7332 548.32 90.1486 539.287L84.2347 448.453C83.989 444.641 85.2853 441.016 87.8864 438.232C90.4875 435.447 94.0205 433.91 97.8332 433.91H308.827C312.639 433.91 316.164 435.447 318.773 438.232C321.383 441.016 322.671 444.65 322.425 448.453L316.511 539.287C315.927 548.312 308.394 555.392 299.363 555.392ZM97.8332 437.306C94.9695 437.306 92.3176 438.461 90.3604 440.549C88.4032 442.638 87.4289 445.372 87.6153 448.233L93.5291 539.066C94.0036 546.316 100.045 551.996 107.297 551.996H299.363C306.615 551.996 312.656 546.316 313.131 539.066L319.045 448.233C319.231 445.372 318.257 442.646 316.299 440.549C314.342 438.461 311.69 437.306 308.827 437.306H97.8332Z" fill="black"/>
<path d="M300.532 568.39H106.958C102.451 568.39 98.7822 564.714 98.7822 560.197C98.7822 555.681 102.451 552.005 106.958 552.005H300.532C305.039 552.005 308.708 555.681 308.708 560.197C308.708 564.714 305.039 568.39 300.532 568.39ZM106.958 555.392C104.315 555.392 102.171 557.549 102.171 560.189C102.171 562.829 104.323 564.986 106.958 564.986H300.532C303.175 564.986 305.319 562.829 305.319 560.189C305.319 557.549 303.167 555.392 300.532 555.392H106.958Z" fill="black"/>
<path d="M50.0138 567.541H363.593C367.321 567.541 370.338 571.514 370.338 576.422C370.338 581.329 367.321 585.302 363.593 585.302H50.0138C46.2858 585.302 43.2696 581.329 43.2696 576.422C43.2696 571.514 46.2858 567.541 50.0138 567.541Z" fill="#0B1028"/>
<path d="M363.585 587H50.0138C45.3623 587 41.5751 582.254 41.5751 576.422C41.5751 570.589 45.3623 565.843 50.0138 565.843H363.593C368.245 565.843 372.032 570.589 372.032 576.422C372.032 582.254 368.245 587 363.593 587H363.585ZM50.0053 569.239C47.2687 569.239 44.9556 572.533 44.9556 576.422C44.9556 580.31 47.2687 583.604 50.0053 583.604H363.585C366.322 583.604 368.635 580.31 368.635 576.422C368.635 572.533 366.322 569.239 363.585 569.239H50.0138H50.0053Z" fill="black"/>
</g>
<defs>
<linearGradient id="paint0_linear_20_386" x1="200.504" y1="519.735" x2="200.504" y2="244.798" gradientUnits="userSpaceOnUse">
<stop stop-color="#0984D6"/>
<stop offset="0.333333" stop-color="#8EAFC4" stop-opacity="0.48"/>
<stop offset="0.666667" stop-color="#A8B5BD" stop-opacity="0.14"/>
<stop offset="1" stop-color="white" stop-opacity="0"/>
</linearGradient>
<clipPath id="clip0_20_386">
<rect width="401" height="587" fill="white"/>
</clipPath>
</defs>
</svg>
